ffmpeg version 4.2.4-1ubuntu0.1 Copyright (c) 2000-2020 the FFmpeg developers
  built with gcc 9 (Ubuntu 9.3.0-10ubuntu2)
  configuration: --prefix=/usr --extra-version=1ubuntu0.1 --toolchain=hardened --libdir=/usr/lib/x86_64-linux-gnu --incdir=/usr/include/x86_64-linux-gnu --arch=amd64 --enable-gpl --disable-stripping --enable-avresample --disable-filter=resample --enable-avisynth --enable-gnutls --enable-ladspa --enable-libaom --enable-libass --enable-libbluray --enable-libbs2b --enable-libcaca --enable-libcdio --enable-libcodec2 --enable-libflite --enable-libfontconfig --enable-libfreetype --enable-libfribidi --enable-libgme --enable-libgsm --enable-libjack --enable-libmp3lame --enable-libmysofa --enable-libopenjpeg --enable-libopenmpt --enable-libopus --enable-libpulse --enable-librsvg --enable-librubberband --enable-libshine --enable-libsnappy --enable-libsoxr --enable-libspeex --enable-libssh --enable-libtheora --enable-libtwolame --enable-libvidstab --enable-libvorbis --enable-libvpx --enable-libwavpack --enable-libwebp --enable-libx265 --enable-libxml2 --enable-libxvid --enable-libzmq --enable-libzvbi --enable-lv2 --enable-omx --enable-openal --enable-opencl --enable-opengl --enable-sdl2 --enable-libdc1394 --enable-libdrm --enable-libiec61883 --enable-nvenc --enable-chromaprint --enable-frei0r --enable-libx264 --enable-shared
  libavutil      56. 31.100 / 56. 31.100
  libavcodec     58. 54.100 / 58. 54.100
  libavformat    58. 29.100 / 58. 29.100
  libavdevice    58.  8.100 / 58.  8.100
  libavfilter     7. 57.100 /  7. 57.100
  libavresample   4.  0.  0 /  4.  0.  0
  libswscale      5.  5.100 /  5.  5.100
  libswresample   3.  5.100 /  3.  5.100
  libpostproc    55.  5.100 / 55.  5.100
Input #0, image2, from './Cubo/Cubo%02d.png':
  Duration: 00:00:04.00, start: 0.000000, bitrate: N/A
    Stream #0:0: Video: png, rgb24(pc), 320x240, 25 fps, 25 tbr, 25 tbn, 25 tbc
Stream mapping:
  Stream #0:0 -> #0:0 (png (native) -> h264 (libx264))
Press [q] to stop, [?] for help
[libx264 @ 0x560e85f78a80] using cpu capabilities: MMX2 SSE2Fast SSSE3 SSE4.2 AVX FMA3 BMI2 AVX2
[libx264 @ 0x560e85f78a80] profile High 4:4:4 Predictive, level 1.2, 4:4:4 8-bit
Output #0, avi, to 'exercici6/cubo_h264_g100_ref0_r17.avi':
  Metadata:
    ISFT            : Lavf58.29.100
    Stream #0:0: Video: h264 (libx264) (H264 / 0x34363248), yuv444p, 320x240, q=-1--1, 17 fps, 17 tbn, 17 tbc
    Metadata:
      encoder         : Lavc58.54.100 libx264
    Side data:
      cpb: bitrate max/min/avg: 0/0/0 buffer size: 0 vbv_delay: -1
frame=   69 fps=0.0 q=-1.0 Lsize=     342kB time=00:00:03.94 bitrate= 710.6kbits/s dup=0 drop=31 speed=22.5x    
video:335kB audio:0kB subtitle:0kB other streams:0kB global headers:0kB muxing overhead: 2.153340%
bench: utime=0.572s stime=0.025s rtime=0.176s
bench: maxrss=91108kB
[libx264 @ 0x560e85f78a80] frame I:13    Avg QP:24.00  size:  7004
[libx264 @ 0x560e85f78a80] frame P:22    Avg QP:27.15  size:  4922
[libx264 @ 0x560e85f78a80] frame B:34    Avg QP:28.09  size:  4216
[libx264 @ 0x560e85f78a80] consecutive B-frames: 30.4%  5.8% 17.4% 46.4%
[libx264 @ 0x560e85f78a80] mb I  I16..4: 19.8%  0.0% 80.2%
[libx264 @ 0x560e85f78a80] mb P  I16..4: 13.0%  0.0% 53.8%  P16..4: 11.9% 12.5%  5.5%  0.0%  0.0%    skip: 3.3%
[libx264 @ 0x560e85f78a80] mb B  I16..4:  3.7%  0.0% 33.0%  B16..8: 22.8% 19.8%  6.9%  direct: 4.6%  skip: 9.2%  L0:48.8% L1:35.9% BI:15.4%
[libx264 @ 0x560e85f78a80] coded y,u,v intra: 74.7% 62.2% 65.4% inter: 38.7% 14.2% 18.0%
[libx264 @ 0x560e85f78a80] i16 v,h,dc,p: 19% 34% 16% 31%
[libx264 @ 0x560e85f78a80] i4 v,h,dc,ddl,ddr,vr,hd,vl,hu: 25% 13% 17%  8%  6%  8%  5% 12%  5%
[libx264 @ 0x560e85f78a80] Weighted P-Frames: Y:9.1% UV:9.1%
[libx264 @ 0x560e85f78a80] kb/s:675.42
